<svg width="729" height="615" viewBox="0 0 729 615" fill="none" xmlns="http://www.w3.org/2000/svg">
<rect x="334.531" y="379.001" width="222.866" height="331.526" rx="16.5" transform="rotate(-45 334.531 379.001)" fill="black" stroke="#B56BFE"/>
<rect x="0.707107" y="162.997" width="222.866" height="331.526" rx="16.5" transform="rotate(-45 0.707107 162.997)" fill="black" stroke="#B56BFE"/>
<rect x="334.531" y="379.001" width="222.866" height="331.526" rx="16.5" transform="rotate(-45 334.531 379.001)" fill="black" stroke="#B56BFE"/>
<rect x="0.707107" y="162.997" width="228.04" height="331.526" rx="16.5" transform="rotate(-45 0.707107 162.997)" fill="black" stroke="#B56BFE"/>
<rect x="337.332" y="375.953" width="225.202" height="327.7" rx="14.5" transform="rotate(-45 337.332 375.953)" fill="black" stroke="#B56BFE"/>
<rect x="3.50789" y="159.949" width="225.202" height="327.7" rx="14.5" transform="rotate(-45 3.50789 159.949)" fill="black" stroke="#B56BFE"/>
<rect x="337.332" y="375.953" width="225.202" height="327.7" rx="14.5" transform="rotate(-45 337.332 375.953)" fill="black" stroke="#B56BFE"/>
<rect x="3.50789" y="159.949" width="225.202" height="327.7" rx="14.5" transform="rotate(-45 3.50789 159.949)" fill="black" stroke="#B56BFE"/>
<rect x="353.04" y="376.965" width="205.594" height="301.064" rx="6" transform="rotate(-45 353.04 376.965)" fill="url(#paint0_linear_191_339)"/>
<rect x="353.04" y="376.965" width="205.594" height="301.064" rx="6" transform="rotate(-45 353.04 376.965)" fill="url(#paint1_radial_191_339)"/>
<circle cx="421.76" cy="301.51" r="2.16617" transform="rotate(-45 421.76 301.51)" fill="black"/>
<circle cx="421.76" cy="301.51" r="2.16617" transform="rotate(-45 421.76 301.51)" fill="black"/>
<circle cx="421.76" cy="301.51" r="1.6848" transform="rotate(-45 421.76 301.51)" fill="url(#paint2_linear_191_339)"/>
<circle cx="421.76" cy="301.51" r="1.6848" transform="rotate(-45 421.76 301.51)" fill="url(#paint3_linear_191_339)"/>
<ellipse cx="421.589" cy="302.02" rx="0.722057" ry="0.481371" transform="rotate(-45 421.589 302.02)" fill="url(#paint4_linear_191_339)"/>
<ellipse cx="421.589" cy="302.02" rx="0.722057" ry="0.481371" transform="rotate(-45 421.589 302.02)" fill="url(#paint5_linear_191_339)"/>
<path d="M379.714 231.18C379.714 235.894 376.065 239.677 371.609 239.677C367.153 239.677 363.503 235.894 363.503 231.18C363.503 226.466 367.153 222.683 371.609 222.683C376.065 222.683 379.714 226.466 379.714 231.18Z" stroke="#B56BFE"/>
<defs>
<linearGradient id="paint0_linear_191_339" x1="455.837" y1="376.965" x2="455.837" y2="678.029" gradientUnits="userSpaceOnUse">
<stop stop-color="#02CEFB"/>
<stop offset="0.675" stop-color="#61FEA0"/>
</linearGradient>
<radialGradient id="paint1_radial_191_339" cx="0" cy="0" r="1" gradientUnits="userSpaceOnUse" gradientTransform="translate(455.837 527.497) rotate(90.0304) scale(253.238 172.934)">
<stop stop-color="#8146FF"/>
<stop offset="0.567708" stop-color="#C261FE"/>
<stop offset="0.885417" stop-color="#CE9DFF"/>
</radialGradient>
<linearGradient id="paint2_linear_191_339" x1="423.278" y1="301.294" x2="420.631" y2="301.579" gradientUnits="userSpaceOnUse">
<stop stop-color="#64B9CC"/>
<stop offset="0.530848" stop-opacity="0"/>
</linearGradient>
<linearGradient id="paint3_linear_191_339" x1="423.278" y1="301.294" x2="420.631" y2="301.579" gradientUnits="userSpaceOnUse">
<stop stop-color="#64B9CC"/>
<stop offset="0.530848" stop-opacity="0"/>
</linearGradient>
<linearGradient id="paint4_linear_191_339" x1="422.24" y1="301.959" x2="421.121" y2="302.139" gradientUnits="userSpaceOnUse">
<stop stop-color="#64B9CC"/>
<stop offset="0.530848" stop-opacity="0"/>
</linearGradient>
<linearGradient id="paint5_linear_191_339" x1="422.24" y1="301.959" x2="421.121" y2="302.139" gradientUnits="userSpaceOnUse">
<stop stop-color="#64B9CC"/>
<stop offset="0.530848" stop-opacity="0"/>
</linearGradient>
</defs>
</svg>
