<svg width="452" height="439" viewBox="0 0 452 439" fill="none" xmlns="http://www.w3.org/2000/svg">
<path d="M10.5447 190.522C4.91843 184.931 4.91845 175.866 10.5447 170.275L165.738 16.058C169.982 11.8404 176.863 11.8403 181.108 16.058L288.981 123.253C294.607 128.843 294.607 137.908 288.981 143.499L136.29 295.23C130.664 300.821 121.542 300.821 115.915 295.23L10.5447 190.522Z" fill="black" stroke="#C261FE" stroke-width="0.503922"/>
<path d="M129.96 306.136C129.897 303.626 130.86 301.198 132.627 299.404L292.967 136.696C294.687 134.951 297.672 136.119 297.733 138.561L300.874 264.723C300.93 266.962 300.071 269.129 298.493 270.729L142.875 428.566C139.279 432.213 133.038 429.771 132.911 424.667L129.96 306.136Z" fill="black" stroke="#C261FE" stroke-width="0.503922"/>
<path d="M136.525 307.887C136.522 305.452 137.481 303.114 139.196 301.375L299.479 138.767C301.221 136.999 304.243 138.223 304.246 140.697L304.358 263.516C304.36 265.688 303.504 267.774 301.974 269.326L143.133 430.393C140.757 432.802 136.637 431.133 136.634 427.76L136.525 307.887Z" fill="black" stroke="#C261FE" stroke-width="0.503922"/>
<path d="M170.362 316.885C164.016 310.728 163.956 300.606 170.227 294.375L322.082 143.474C328.301 137.295 338.383 137.295 344.601 143.474L439.99 238.263C446.2 244.434 446.21 254.434 440.014 260.618L289.614 410.7C283.452 416.85 273.455 416.919 267.206 410.856L170.362 316.885Z" fill="black" stroke="#C261FE" stroke-width="0.503922"/>
<path d="M170.907 312.265C165.281 306.674 165.281 297.61 170.907 292.019L326.1 137.801C330.344 133.584 337.226 133.584 341.47 137.801L441.455 237.158C447.081 242.749 447.081 251.813 441.455 257.404L288.764 409.135C283.138 414.726 274.016 414.726 268.39 409.135L170.907 312.265Z" fill="black" stroke="#C261FE" stroke-width="0.503922"/>
<rect width="7.49514" height="11.7674" rx="3.02353" transform="matrix(0.709333 -0.704874 0.709333 0.704874 202.976 308.733)" fill="#B56BFE"/>
<rect width="10.0625" height="3.1651" rx="1.58255" transform="matrix(0.709333 -0.704874 0.709333 0.704874 196.764 300.498)" fill="#B56BFE"/>
<rect width="11.5584" height="11.7674" rx="3.02353" transform="matrix(0.709333 -0.704874 0.709333 0.704874 209.589 302.017)" fill="#B56BFE"/>
<rect width="11.5584" height="11.7674" rx="3.02353" transform="matrix(0.709333 -0.704874 0.709333 0.704874 223.728 307.014)" fill="#B56BFE"/>
<rect width="11.5584" height="11.7674" rx="3.02353" transform="matrix(0.709333 -0.704874 0.709333 0.704874 235.437 314.425)" fill="#B56BFE"/>
<rect width="11.5584" height="11.7674" rx="3.02353" transform="matrix(0.709333 -0.704874 0.709333 0.704874 249.575 319.422)" fill="#B56BFE"/>
<rect width="11.5584" height="11.7674" rx="3.02353" transform="matrix(0.709333 -0.704874 0.709333 0.704874 251.566 336.489)" fill="#B56BFE"/>
<rect width="11.5584" height="11.7674" rx="3.02353" transform="matrix(0.709333 -0.704874 0.709333 0.704874 219.306 292.361)" fill="#B56BFE"/>
<rect width="11.5584" height="11.7674" rx="3.02353" transform="matrix(0.709333 -0.704874 0.709333 0.704874 233.444 297.358)" fill="#B56BFE"/>
<rect width="11.5584" height="11.7674" rx="3.02353" transform="matrix(0.709333 -0.704874 0.709333 0.704874 245.153 304.769)" fill="#B56BFE"/>
<rect width="11.5584" height="11.7674" rx="3.02353" transform="matrix(0.709333 -0.704874 0.709333 0.704874 259.291 309.766)" fill="#B56BFE"/>
<rect width="11.5584" height="11.7674" rx="3.02353" transform="matrix(0.709333 -0.704874 0.709333 0.704874 261.283 326.833)" fill="#B56BFE"/>
<rect width="11.5584" height="11.7674" rx="3.02353" transform="matrix(0.709333 -0.704874 0.709333 0.704874 229.022 282.705)" fill="#B56BFE"/>
<rect width="11.5584" height="11.7674" rx="3.02353" transform="matrix(0.709333 -0.704874 0.709333 0.704874 243.161 287.702)" fill="#B56BFE"/>
<rect width="11.5584" height="11.7674" rx="3.02353" transform="matrix(0.709333 -0.704874 0.709333 0.704874 254.87 295.113)" fill="#B56BFE"/>
<rect width="11.5584" height="11.7674" rx="3.02353" transform="matrix(0.709333 -0.704874 0.709333 0.704874 269.009 300.11)" fill="#B56BFE"/>
<rect width="11.5584" height="11.7674" rx="3.02353" transform="matrix(0.709333 -0.704874 0.709333 0.704874 271.001 317.177)" fill="#B56BFE"/>
<rect width="11.5584" height="11.7674" rx="3.02353" transform="matrix(0.709333 -0.704874 0.709333 0.704874 238.74 273.049)" fill="#B56BFE"/>
<rect width="11.5584" height="11.7674" rx="3.02353" transform="matrix(0.709333 -0.704874 0.709333 0.704874 252.878 278.046)" fill="#B56BFE"/>
<rect width="11.5584" height="11.7674" rx="3.02353" transform="matrix(0.709333 -0.704874 0.709333 0.704874 264.588 285.457)" fill="#B56BFE"/>
<rect width="11.5584" height="11.7674" rx="3.02353" transform="matrix(0.709333 -0.704874 0.709333 0.704874 278.726 290.454)" fill="#B56BFE"/>
<rect width="66.3537" height="11.7674" rx="3.02353" transform="matrix(0.709333 -0.704874 0.709333 0.704874 280.718 307.521)" fill="#B56BFE"/>
<rect width="11.5584" height="11.7674" rx="3.02353" transform="matrix(0.709333 -0.704874 0.709333 0.704874 248.457 263.393)" fill="#B56BFE"/>
<rect width="11.5584" height="11.7674" rx="3.02353" transform="matrix(0.709333 -0.704874 0.709333 0.704874 262.595 268.391)" fill="#B56BFE"/>
<rect width="11.5584" height="11.7674" rx="3.02353" transform="matrix(0.709333 -0.704874 0.709333 0.704874 274.305 275.801)" fill="#B56BFE"/>
<rect width="11.5584" height="11.7674" rx="3.02353" transform="matrix(0.709333 -0.704874 0.709333 0.704874 288.442 280.798)" fill="#B56BFE"/>
<rect width="11.5584" height="11.7674" rx="3.02353" transform="matrix(0.709333 -0.704874 0.709333 0.704874 258.174 253.737)" fill="#B56BFE"/>
<rect width="11.5584" height="11.7674" rx="3.02353" transform="matrix(0.709333 -0.704874 0.709333 0.704874 272.312 258.734)" fill="#B56BFE"/>
<rect width="11.5584" height="11.7674" rx="3.02353" transform="matrix(0.709333 -0.704874 0.709333 0.704874 284.021 266.146)" fill="#B56BFE"/>
<rect width="11.5584" height="11.7674" rx="3.02353" transform="matrix(0.709333 -0.704874 0.709333 0.704874 298.16 271.143)" fill="#B56BFE"/>
<rect width="11.5584" height="11.7674" rx="3.02353" transform="matrix(0.709333 -0.704874 0.709333 0.704874 267.891 244.082)" fill="#B56BFE"/>
<rect width="11.5584" height="11.7674" rx="3.02353" transform="matrix(0.709333 -0.704874 0.709333 0.704874 282.029 249.078)" fill="#B56BFE"/>
<rect width="11.5584" height="11.7674" rx="3.02353" transform="matrix(0.709333 -0.704874 0.709333 0.704874 293.738 256.489)" fill="#B56BFE"/>
<rect width="11.5584" height="11.7674" rx="3.02353" transform="matrix(0.709333 -0.704874 0.709333 0.704874 307.877 261.487)" fill="#B56BFE"/>
<rect width="11.5584" height="11.7674" rx="3.02353" transform="matrix(0.709333 -0.704874 0.709333 0.704874 277.608 234.426)" fill="#B56BFE"/>
<rect width="11.5584" height="11.7674" rx="3.02353" transform="matrix(0.709333 -0.704874 0.709333 0.704874 291.747 239.422)" fill="#B56BFE"/>
<rect width="11.5584" height="11.7674" rx="3.02353" transform="matrix(0.709333 -0.704874 0.709333 0.704874 303.455 246.834)" fill="#B56BFE"/>
<rect width="11.5584" height="11.7674" rx="3.02353" transform="matrix(0.709333 -0.704874 0.709333 0.704874 317.594 251.831)" fill="#B56BFE"/>
<rect width="11.5584" height="11.7674" rx="3.02353" transform="matrix(0.709333 -0.704874 0.709333 0.704874 287.324 224.769)" fill="#B56BFE"/>
<rect width="11.5584" height="11.7674" rx="3.02353" transform="matrix(0.709333 -0.704874 0.709333 0.704874 301.463 229.767)" fill="#B56BFE"/>
<rect width="11.5584" height="11.7674" rx="3.02353" transform="matrix(0.709333 -0.704874 0.709333 0.704874 313.172 237.178)" fill="#B56BFE"/>
<rect width="11.5584" height="11.7674" rx="3.02353" transform="matrix(0.709333 -0.704874 0.709333 0.704874 327.311 242.175)" fill="#B56BFE"/>
<rect width="11.5584" height="11.7674" rx="3.02353" transform="matrix(0.709333 -0.704874 0.709333 0.704874 329.303 259.242)" fill="#B56BFE"/>
<rect width="11.5584" height="11.7674" rx="3.02353" transform="matrix(0.709333 -0.704874 0.709333 0.704874 297.042 215.114)" fill="#B56BFE"/>
<rect width="11.5584" height="11.7674" rx="3.02353" transform="matrix(0.709333 -0.704874 0.709333 0.704874 311.181 220.111)" fill="#B56BFE"/>
<rect width="11.5584" height="11.7674" rx="3.02353" transform="matrix(0.709333 -0.704874 0.709333 0.704874 322.889 227.522)" fill="#B56BFE"/>
<rect width="11.5584" height="11.7674" rx="3.02353" transform="matrix(0.709333 -0.704874 0.709333 0.704874 337.027 232.519)" fill="#B56BFE"/>
<rect width="11.5584" height="11.7674" rx="3.02353" transform="matrix(0.709333 -0.704874 0.709333 0.704874 339.02 249.586)" fill="#B56BFE"/>
<rect width="11.5584" height="11.7674" rx="3.02353" transform="matrix(0.709333 -0.704874 0.709333 0.704874 306.759 205.458)" fill="#B56BFE"/>
<rect width="11.5584" height="11.7674" rx="3.02353" transform="matrix(0.709333 -0.704874 0.709333 0.704874 320.897 210.455)" fill="#B56BFE"/>
<rect width="11.5584" height="11.7674" rx="3.02353" transform="matrix(0.709333 -0.704874 0.709333 0.704874 332.606 217.866)" fill="#B56BFE"/>
<rect width="12.8426" height="11.7674" rx="3.02353" transform="matrix(0.709333 -0.704874 0.709333 0.704874 348.736 239.93)" fill="#B56BFE"/>
<rect width="11.5584" height="11.7674" rx="3.02353" transform="matrix(0.709333 -0.704874 0.709333 0.704874 316.476 195.802)" fill="#B56BFE"/>
<rect width="11.5584" height="11.7674" rx="3.02353" transform="matrix(0.709333 -0.704874 0.709333 0.704874 330.614 200.799)" fill="#B56BFE"/>
<rect width="14.9831" height="11.7674" rx="3.02353" transform="matrix(0.709333 -0.704874 0.709333 0.704874 340.331 191.143)" fill="#B56BFE"/>
<rect width="25.6853" height="11.7674" rx="3.02353" transform="matrix(0.709333 -0.704874 0.709333 0.704874 342.323 208.21)" fill="#B56BFE"/>
<rect width="32.9628" height="11.7674" rx="3.02353" transform="matrix(0.709333 -0.704874 0.709333 0.704874 346.744 222.863)" fill="#B56BFE"/>
<rect width="12.8426" height="11.7674" rx="3.02353" transform="matrix(0.709333 -0.704874 0.709333 0.704874 359.972 228.765)" fill="#B56BFE"/>
<rect width="12.4146" height="11.7674" rx="3.02353" transform="matrix(0.709333 -0.704874 0.709333 0.704874 370.904 217.902)" fill="#B56BFE"/>
<rect width="21.4044" height="11.7674" rx="3.02353" transform="matrix(0.709333 -0.704874 0.709333 0.704874 326.192 186.146)" fill="#B56BFE"/>
<rect width="13.6988" height="11.7674" rx="3.02353" transform="matrix(0.709333 -0.704874 0.709333 0.704874 212.491 318.179)" fill="#B56BFE"/>
<rect width="16.6954" height="11.7674" rx="3.02353" transform="matrix(0.709333 -0.704874 0.709333 0.704874 222.075 327.702)" fill="#B56BFE"/>
<rect width="23.1168" height="11.7674" rx="3.02353" transform="matrix(0.709333 -0.704874 0.709333 0.704874 231.658 337.225)" fill="#B56BFE"/>
<rect width="12.4146" height="11.7674" rx="3.02353" transform="matrix(0.709333 -0.704874 0.709333 0.704874 241.243 346.749)" fill="#B56BFE"/>
<rect x="0.357448" width="85.5861" height="51.7495" rx="3.27549" transform="matrix(0.709333 -0.704874 0.709333 0.704874 295.243 321.246)" fill="black" stroke="#C261FE" stroke-width="0.503922"/>
<path d="M160.036 173.452C160.036 170.985 161.023 168.619 162.78 166.876L325.466 5.42774C327.219 3.68905 330.211 4.92211 330.211 7.38263L330.211 126.817C330.211 129.014 329.334 131.121 327.771 132.675L166.51 293.071C164.122 295.446 160.036 293.765 160.036 290.408L160.036 173.452Z" fill="black" stroke="#C261FE" stroke-width="0.503922"/>
<path fill-rule="evenodd" clip-rule="evenodd" d="M163.772 175.074L327.541 12.3347V124.495L163.772 287.235V175.074Z" fill="url(#paint0_radial_191_407)"/>
<g filter="url(#filter0_f_191_407)">
<path d="M177.74 305.475C172.015 299.786 172.015 290.562 177.74 284.873L319.875 143.632C324.218 139.316 331.26 139.316 335.603 143.632L363.476 171.329C369.201 177.018 369.201 186.242 363.476 191.931L223.843 330.686C218.118 336.375 208.836 336.375 203.111 330.686L177.74 305.475Z" fill="url(#paint1_radial_191_407)" fill-opacity="0.44"/>
</g>
<defs>
<filter id="filter0_f_191_407" x="136.66" y="103.608" width="267.896" height="268.131" filterUnits="userSpaceOnUse" color-interpolation-filters="sRGB">
<feFlood flood-opacity="0" result="BackgroundImageFix"/>
<feBlend mode="normal" in="SourceGraphic" in2="BackgroundImageFix" result="shape"/>
<feGaussianBlur stdDeviation="18.3931" result="effect1_foregroundBlur_191_407"/>
</filter>
<radialGradient id="paint0_radial_191_407" cx="0" cy="0" r="1" gradientUnits="userSpaceOnUse" gradientTransform="translate(245.657 149.785) rotate(107.716) scale(170.244 101.303)">
<stop stop-color="#B56BFE"/>
<stop offset="0.296875" stop-color="#C261FE"/>
<stop offset="0.640625" stop-color="#CE9DFF"/>
</radialGradient>
<radialGradient id="paint1_radial_191_407" cx="0" cy="0" r="1" gradientUnits="userSpaceOnUse" gradientTransform="translate(256.106 203.267) rotate(43.3695) scale(36.9001 128.243)">
<stop stop-color="#8146FF"/>
<stop offset="0.291667" stop-color="#B56BFE"/>
<stop offset="0.807292" stop-color="#C261FE"/>
</radialGradient>
</defs>
</svg>
