<svg width="529" height="383" viewBox="0 0 529 383" fill="none" xmlns="http://www.w3.org/2000/svg">
<rect x="0.707107" y="87.2794" width="116.983" height="241.288" rx="19.5" transform="rotate(-45 0.707107 87.2794)" fill="black" stroke="#B56BFE"/>
<rect x="274.957" y="211.303" width="116.983" height="241.288" rx="19.5" transform="rotate(-45 274.957 211.303)" fill="black" stroke="#B56BFE"/>
<rect x="276.881" y="208.86" width="116.983" height="238.428" rx="19.5" transform="rotate(-45 276.881 208.86)" fill="black" stroke="#B56BFE"/>
<rect x="280.311" y="208.936" width="112.405" height="233.446" rx="16" transform="rotate(-45 280.311 208.936)" fill="url(#paint0_radial_190_38)"/>
<circle cx="325.457" cy="174.281" r="2.0233" transform="rotate(-45 325.457 174.281)" fill="black"/>
<circle cx="325.457" cy="174.281" r="2.0233" transform="rotate(-45 325.457 174.281)" fill="black"/>
<circle cx="325.457" cy="174.281" r="1.57368" transform="rotate(-45 325.457 174.281)" fill="url(#paint1_linear_190_38)"/>
<circle cx="325.457" cy="174.281" r="1.57368" transform="rotate(-45 325.457 174.281)" fill="url(#paint2_linear_190_38)"/>
<ellipse cx="325.35" cy="174.546" rx="0.497934" ry="0.770795" transform="rotate(-45 325.35 174.546)" fill="url(#paint3_linear_190_38)"/>
<rect x="254.521" y="169.301" width="116.983" height="238.428" rx="19.5" transform="rotate(135 254.521 169.301)" fill="black" stroke="#B56BFE"/>
<rect x="218.547" y="173.918" width="60.1593" height="22.582" rx="11.291" transform="rotate(135 218.547 173.918)" fill="#0C0B0B" stroke="#B56BFE"/>
<circle cx="202.518" cy="173.985" r="8.23406" transform="rotate(135 202.518 173.985)" fill="black" stroke="#B56BFE"/>
<circle cx="189.414" cy="187.083" r="8.23406" transform="rotate(135 189.414 187.083)" fill="black" stroke="#B56BFE"/>
<circle cx="176.31" cy="200.182" r="8.23406" transform="rotate(135 176.31 200.182)" fill="black" stroke="#B56BFE"/>
<defs>
<radialGradient id="paint0_radial_190_38" cx="0" cy="0" r="1" gradientUnits="userSpaceOnUse" gradientTransform="translate(336.514 325.659) rotate(90.4316) scale(141.336 68.054)">
<stop stop-color="#8146FF"/>
<stop offset="0.729167" stop-color="#B56BFE"/>
<stop offset="1" stop-color="#CE9DFF"/>
</radialGradient>
<linearGradient id="paint1_linear_190_38" x1="326.875" y1="174.08" x2="324.402" y2="174.346" gradientUnits="userSpaceOnUse">
<stop stop-color="#64B9CC"/>
<stop offset="0.530848" stop-opacity="0"/>
</linearGradient>
<linearGradient id="paint2_linear_190_38" x1="326.875" y1="174.08" x2="324.402" y2="174.346" gradientUnits="userSpaceOnUse">
<stop stop-color="#64B9CC"/>
<stop offset="0.530848" stop-opacity="0"/>
</linearGradient>
<linearGradient id="paint3_linear_190_38" x1="325.799" y1="174.447" x2="325.011" y2="174.502" gradientUnits="userSpaceOnUse">
<stop stop-color="#64B9CC"/>
<stop offset="0.530848" stop-opacity="0"/>
</linearGradient>
</defs>
</svg>
